<svg xmlns="http://www.w3.org/2000/svg" width="190" height="33" viewBox="0 0 190 33" fill="none"><g clip-path="url(#clip0_512_47)"><path d="M16.8806 32.7317C8.56143 33.0949 0.994642 26.9896 0.103922 18.4283C-0.899218 8.88115 5.65578 1.02898 15.1856 0.302564C23.9545 -0.363314 31.9104 6.13116 32.533 15.4534C33.173 24.94 25.6754 32.5155 16.8806 32.723V32.7317Z" fill="#8C0C69"></path><path d="M136.539 10.6455C133.79 9.59045 131.005 9.65964 128.281 10.8184C127.027 11.346 126.378 12.254 126.404 13.7068C126.456 17.6934 126.422 21.6887 126.422 25.6839C126.422 28.6328 127.226 29.2987 130.209 28.8231C130.304 28.8058 130.408 28.7712 130.512 28.7798C131.169 28.7971 131.29 28.4339 131.273 27.8545C131.23 26.6179 131.256 25.3899 131.256 24.1014C131.679 24.1706 132.008 24.2484 132.345 24.2917C134.205 24.5251 136.012 24.3176 137.62 23.3058C139.765 21.9654 140.396 19.8381 140.517 17.4686C140.682 14.3294 139.194 11.6746 136.539 10.6455ZM135.372 18.7917C134.905 20.2964 133.124 21.0314 131.654 20.4002C131.264 20.2359 131.178 19.9764 131.187 19.5959C131.204 18.7744 131.195 17.9442 131.195 17.1227C131.195 16.4308 131.264 15.739 131.178 15.0645C131.057 14.1392 131.541 13.8624 132.311 13.7327C133.703 13.4906 134.888 14.1392 135.337 15.445C135.709 16.5519 135.709 17.6848 135.372 18.7917Z" fill="white"></path><path d="M149.061 9.9277C144.608 9.87581 141.659 12.7209 141.624 17.114C141.59 21.4465 144.444 24.3608 148.742 24.3954C153.463 24.43 156.317 21.7319 156.343 17.2091C156.369 12.9112 153.437 9.97959 149.061 9.9277ZM151.059 19.1722C150.687 20.0802 150.047 20.625 149.018 20.6423C147.998 20.6509 147.289 20.1321 146.925 19.2413C146.363 17.8836 146.372 16.4741 146.908 15.1164C147.254 14.217 147.989 13.6722 148.992 13.6981C149.978 13.7154 150.679 14.217 151.05 15.1509C151.31 15.7995 151.431 16.4654 151.405 17.1572C151.431 17.8577 151.327 18.5322 151.059 19.1722Z" fill="white"></path><path d="M178.767 19.1116C178.767 20.5212 178.749 21.9308 178.775 23.3404C178.784 23.816 178.654 24.0409 178.161 24.0409C177.988 24.0409 177.824 24.11 177.651 24.136C174.737 24.5424 173.958 23.8679 173.958 20.9536C173.958 19.1981 173.958 17.4426 173.958 15.6871C173.958 14.9348 173.881 14.217 173.068 13.8797C172.134 13.4906 171.226 13.7068 170.378 14.1305C170.015 14.3121 170.162 14.7445 170.162 15.0818C170.162 17.7626 170.136 20.4434 170.171 23.1328C170.171 23.7814 169.998 24.0927 169.34 24.0927C169.133 24.0927 168.934 24.1533 168.726 24.1706C165.977 24.3954 165.319 23.7987 165.319 21.0574C165.319 18.7225 165.363 16.3789 165.302 14.044C165.267 12.7555 165.786 11.8389 166.876 11.2595C169.73 9.7288 172.73 9.46937 175.757 10.6022C177.729 11.3373 178.706 12.9025 178.749 14.9953C178.784 16.3703 178.749 17.7453 178.749 19.1203L178.767 19.1116Z" fill="white"></path><path d="M69.5107 17.7539C69.5107 16.4135 69.5367 15.0731 69.5107 13.7327C69.4848 12.7815 69.8393 12.0377 70.6349 11.5535C73.7914 9.61637 77.1208 9.331 80.4934 10.8703C82.2143 11.6572 82.9321 13.2398 82.958 15.0904C82.9926 17.8058 82.9493 20.5212 82.9839 23.2452C82.9839 23.816 82.8023 24.0668 82.2489 24.0668C82.1797 24.0668 82.1105 24.0927 82.05 24.11C78.9887 24.6202 78.1412 23.9198 78.1412 20.8585C78.1412 19.0684 78.1412 17.2783 78.1412 15.4969C78.1412 14.7618 77.9769 14.1305 77.1813 13.8624C76.23 13.5425 75.3393 13.7241 74.5091 14.2083C74.2065 14.3899 74.3535 14.7791 74.3535 15.0818C74.3448 17.7626 74.3275 20.452 74.3621 23.1328C74.3621 23.7555 74.2324 24.11 73.5579 24.1014C73.3503 24.1014 73.1514 24.1619 72.9439 24.1792C70.2025 24.404 69.5453 23.8074 69.5453 21.0747C69.5453 19.9764 69.5453 18.8695 69.5453 17.7712L69.5107 17.7539Z" fill="white"></path><path d="M98.3424 15.6871C98.3078 13.8106 97.5468 12.2799 95.9815 11.2335C93.5515 9.59909 90.9312 9.50397 88.3023 10.6887C85.267 12.0551 83.9438 15.6093 84.9556 19.3278C86.1923 23.8593 93.0759 26.1855 96.9328 23.3836C97.8927 22.6832 98.0483 21.3428 97.296 20.3656C96.9933 19.9678 96.7079 19.7775 96.1804 20.0629C95.2292 20.5817 94.1655 20.7461 93.0932 20.8152C91.3896 20.9277 90.1183 20.2964 89.5303 19.0165C91.8306 18.6706 94.105 18.3333 96.3793 17.9874C97.7716 17.7712 98.377 17.0621 98.3424 15.6871ZM89.7984 15.739C89.0979 15.8774 89.1152 15.5574 89.2536 15.0818C89.5476 14.1219 90.5334 13.4473 91.649 13.4387C92.7646 13.4387 93.3613 13.8797 93.7677 15.0731C92.436 15.2893 91.1128 15.4796 89.7984 15.739Z" fill="white"></path><path d="M37.8945 15.739C37.8945 13.7414 37.8858 11.7524 37.8945 9.75479C37.9031 7.91281 38.7852 7.04804 40.6358 7.04804C43.4636 7.04804 46.3001 7.07398 49.1279 7.03074C49.7851 7.02209 50.0965 7.26423 50.1916 7.84363C50.2694 8.35385 50.3472 8.87271 50.3127 9.37428C50.2262 10.4812 49.69 10.9568 48.5658 10.9655C46.8708 10.9828 45.1845 10.9914 43.4896 10.9568C42.8929 10.9395 42.7545 11.1211 42.7545 11.7005C42.7286 14.07 42.7113 14.07 45.0548 14.07C46.1271 14.07 47.1995 14.096 48.2631 14.0614C48.8079 14.0441 49.076 14.2343 49.2144 14.7445C49.7419 16.6903 49.3441 18.1777 47.0265 18.0134C45.9282 17.9356 44.8127 18.0393 43.7144 17.9875C43.0139 17.9529 42.7545 18.1172 42.7891 18.8695C42.8496 20.3137 42.7891 21.7579 42.815 23.2021C42.815 23.7036 42.7026 23.9717 42.1492 23.989C41.3968 24.0149 40.6445 24.1447 39.8748 24.0582C38.4566 23.8939 37.9204 23.3664 37.9031 21.9308C37.8772 19.864 37.9031 17.8059 37.9031 15.739H37.8945Z" fill="white"></path><path d="M118.742 24.4214C117.082 24.4214 115.776 24.3262 114.566 23.7641C112.957 23.0291 112.481 21.3687 113.476 20.1234C113.779 19.7429 114.038 19.6564 114.505 19.8986C115.88 20.6077 117.333 20.9623 118.889 20.7461C119.382 20.6769 119.919 20.5472 119.962 19.9678C120.014 19.2846 119.408 19.1635 118.915 19.0511C117.774 18.7917 116.615 18.6187 115.525 18.169C113.865 17.4945 112.897 16.3098 112.897 14.4851C112.897 12.7469 113.675 11.4497 115.292 10.7233C117.705 9.64233 120.178 9.59909 122.617 10.559C124.095 11.147 124.519 12.6258 123.724 13.8538C123.464 14.2516 123.213 14.39 122.712 14.1997C121.415 13.7068 120.074 13.4128 118.673 13.6203C118.224 13.6895 117.696 13.75 117.67 14.3035C117.644 14.831 118.111 15.0126 118.578 15.125C119.78 15.4104 121 15.6439 122.141 16.1541C123.914 16.941 124.813 18.2382 124.779 19.9591C124.735 21.8616 123.732 23.2626 121.882 23.9284C120.766 24.3349 119.599 24.4473 118.76 24.43L118.742 24.4214Z" fill="white"></path><path d="M105.062 24.43C103.764 24.3955 102.346 24.3436 101.075 23.6085C99.7519 22.8389 99.3887 21.4466 100.176 20.2791C100.478 19.8294 100.746 19.6219 101.334 19.9332C102.632 20.6077 104.041 20.945 105.52 20.7807C106.065 20.7202 106.731 20.651 106.765 19.9505C106.8 19.2414 106.125 19.1463 105.589 19.0338C104.378 18.7744 103.159 18.5755 102.026 18.0393C100.677 17.3994 99.847 16.4309 99.7346 14.8829C99.6136 13.1447 100.167 11.7351 101.741 10.9136C104.231 9.59913 106.843 9.59913 109.437 10.5763C110.57 11.0001 110.985 11.8562 110.838 12.9372C110.674 14.1392 110.242 14.4073 109.083 14.0527C107.959 13.7155 106.817 13.4474 105.624 13.603C105.122 13.6722 104.456 13.6722 104.439 14.3381C104.43 14.8829 104.984 15.0299 105.477 15.1596C106.61 15.445 107.768 15.6439 108.841 16.1282C110.743 16.9843 111.625 18.2555 111.547 20.0975C111.47 21.9914 110.38 23.3491 108.426 24.0063C107.362 24.3609 106.272 24.4387 105.044 24.4473L105.062 24.43Z" fill="white"></path><path d="M181.153 14.2084C181.153 12.2799 181.179 10.3514 181.136 8.423C181.119 7.80901 181.326 7.53228 181.914 7.48904C182.26 7.46309 182.606 7.4285 182.943 7.41986C185.417 7.37662 185.892 7.80036 185.832 10.2477C185.806 11.173 186.031 11.5621 186.999 11.4238C187.509 11.3546 188.037 11.4065 188.556 11.4151C189.706 11.4151 189.948 11.6832 190 12.9804C190.061 14.3554 189.645 15.0039 188.59 15.0818C187.942 15.1337 187.276 15.1423 186.627 15.0818C185.953 15.0212 185.806 15.2807 185.84 15.8947C185.892 16.7854 185.849 17.6848 185.858 18.5755C185.858 20.2013 186.359 20.6769 187.985 20.5558C188.772 20.4953 189.628 20.1061 189.87 21.3773C190.061 22.3891 189.68 23.4355 188.763 23.9284C187.189 24.7846 183.791 24.4041 182.459 23.228C181.413 22.3027 181.162 21.0747 181.153 19.7689C181.136 17.9096 181.153 16.0503 181.153 14.1911V14.2084Z" fill="white"></path><path d="M58.9432 14.1824C58.9432 12.254 58.9778 10.3255 58.9259 8.39709C58.9086 7.73986 59.1853 7.54961 59.7215 7.48907C59.9982 7.45448 60.2749 7.42854 60.543 7.41989C63.2325 7.32477 63.7427 7.7831 63.6908 10.4293C63.6735 11.2422 63.8983 11.5189 64.7026 11.4238C65.2474 11.3546 65.8095 11.4065 66.3629 11.4152C67.4699 11.4152 67.7552 11.7178 67.8504 12.9631C67.9455 14.1565 67.4612 14.9434 66.5273 15.0818C66.2938 15.1164 66.043 15.0991 65.8008 15.0991C64.4057 15.1049 63.7081 15.8226 63.7081 17.2524C63.7081 17.7021 63.7081 18.1518 63.7081 18.5928C63.7081 20.2272 64.1751 20.6942 65.8008 20.5645C66.6051 20.4953 67.4612 20.1235 67.6774 21.412C67.8763 22.5881 67.4353 23.6604 66.3629 24.0149C64.4518 24.6549 62.5406 24.5771 60.7592 23.5826C59.4102 22.8302 59.0123 21.4985 58.9778 20.0716C58.9259 18.1085 58.9691 16.1455 58.9691 14.1824H58.9518H58.9432Z" fill="white"></path><path d="M158.142 16.6297C158.142 14.8742 158.185 13.1274 158.124 11.3719C158.098 10.6974 158.366 10.4552 158.963 10.412C159.067 10.412 159.171 10.3774 159.266 10.3687C162.275 10.0142 162.984 10.6368 162.984 13.6462C162.984 16.6557 162.967 19.8986 163.002 23.0204C163.002 23.6777 162.889 24.0668 162.154 24.0668C161.912 24.0668 161.679 24.1446 161.436 24.1619C158.825 24.3868 158.15 23.7641 158.15 21.1612C158.15 19.6478 158.15 18.1344 158.15 16.6297H158.142Z" fill="white"></path><path d="M51.6791 16.6557C51.6791 14.8397 51.6964 13.015 51.6704 11.199C51.6704 10.7493 51.7396 10.4725 52.2585 10.4725C52.4228 10.4725 52.5957 10.3861 52.76 10.3688C56.124 10.092 56.565 10.7925 56.5045 13.603C56.4267 16.7249 56.4526 19.8554 56.5045 22.9772C56.5218 23.7814 56.2537 24.0928 55.5014 24.1014C55.3976 24.1014 55.3025 24.1447 55.1987 24.1533C52.1374 24.4041 51.558 23.5912 51.6618 21.092C51.7223 19.6219 51.6704 18.1431 51.6704 16.6643L51.6791 16.6557Z" fill="white"></path><path d="M56.6947 6.65023C56.6861 8.19818 55.6656 9.15808 54.0485 9.14079C52.4659 9.12349 51.4542 8.1117 51.4801 6.55511C51.506 5.08499 52.5438 4.11644 54.0917 4.10779C55.6829 4.10779 56.712 5.10228 56.7034 6.64158L56.6947 6.65023Z" fill="white"></path><path d="M160.52 9.14074C158.929 9.14074 157.908 8.12031 157.934 6.58101C157.96 5.10224 158.989 4.12504 160.52 4.11639C162.094 4.11639 163.192 5.14548 163.183 6.63289C163.183 8.1376 162.102 9.14939 160.52 9.14074Z" fill="white"></path><path d="M18.0393 16.5C18.0393 17.4772 17.2264 18.2642 16.2492 18.2555C15.2633 18.2555 14.4937 17.4513 14.5196 16.4568C14.5456 15.5228 15.3066 14.7618 16.2492 14.7445C17.2091 14.7272 18.0479 15.5488 18.0479 16.5H18.0393Z" fill="#FDFCFD"></path></g><defs><clipPath id="clip0_512_47"><rect width="190" height="32.481" fill="white" transform="translate(0 0.259521)"></rect></clipPath></defs></svg>